<svg data-name="Layer 1" xmlns="http://www.w3.org/2000/svg" viewBox="0 0 200 200"><defs><style>.cls-1{fill:#35488a;}</style></defs><title>web</title><path class="cls-1" d="M152.17,90.09c.61,2.67,1.25,5.33,1.81,8,.2,1-.31,1.49-1.33,1.54-.75,0-1.51,0-2.38,0-.11,1.79-.22,3.51-.31,5.23-.15,2.78-.28,5.56-.44,8.34-.08,1.5-.87,2.36-2.13,2.36s-2.07-.83-2.15-2.36c-.2-3.64-.35-7.29-.52-10.94a8.15,8.15,0,0,0-.35-2.3q-.24,4.36-.48,8.71c-.08,1.52-.16,3-.24,4.55a2.21,2.21,0,0,1-2,2.36c-1.26.06-2.18-.85-2.26-2.39-.19-3.43-.32-6.86-.48-10.29,0-1-.11-2.09-.17-3.28-.76,0-1.47,0-2.18,0-1.75,0-2.12-.52-1.72-2.22,1.09-4.64,2.25-9.26,3.25-13.91a33.94,33.94,0,0,0,.33-4.91c-1.35.36-2.48.7-3.63,1a5.83,5.83,0,0,1-3.91-.37,2.76,2.76,0,0,0-.4-.15c-2.72-.78-3-1.1-3.25-4A39.62,39.62,0,0,0,125,64.53c-.08-.22-.18-.44-.27-.66l-.32.09c.36,2,.7,3.93,1.1,5.88,1.32,6.51,2.66,13,4,19.52.44,2.15-.24,3-2.43,3H124c-.1,1.87-.2,3.59-.29,5.31-.27,5.16-.53,10.32-.82,15.48-.12,2.19-1.43,3.57-3.29,3.56s-3.21-1.38-3.32-3.53c-.35-6.57-.67-13.14-1-19.7,0-.33-.05-.67-.08-1h-.29c0,.4-.08.8-.1,1.2-.35,6.57-.69,13.13-1.07,19.7a3.3,3.3,0,0,1-3.25,3.37,3.37,3.37,0,0,1-3.32-3.43q-.52-10-1-19.92c0-.29,0-.57-.08-1h-3.32c-2,0-2.7-.85-2.31-2.78Q102.88,77.8,105.32,66c.16-.77.17-1.57.25-2.35l-.29-.08a16.85,16.85,0,0,0-.91,2.5c-.68,3.39-1.34,6.79-1.89,10.2-.3,1.86-1.41,3.07-3.07,3S96.8,77.92,96.79,76c0-.51,0-1,0-1.52A38.62,38.62,0,0,0,95.45,63c-.37-1.23-.89-2.41-1.34-3.61l-.26.08c.51,4.24,1.08,8.48,1.52,12.72a50.64,50.64,0,0,1,.28,6.67A13.09,13.09,0,0,1,94.7,82,11.75,11.75,0,0,0,94,84.64c-.48,9.6-.9,19.2-1.34,28.81a3.27,3.27,0,0,1-3.2,3.41,3.31,3.31,0,0,1-3.34-3.49q-.44-9.48-.88-19A2.75,2.75,0,0,0,85,93.17c-.09,1.88-.2,3.76-.28,5.64q-.33,7.26-.65,14.51c-.1,2.16-1.39,3.54-3.28,3.55s-3.17-1.44-3.27-3.58c-.44-9.38-.86-18.77-1.35-28.15a8.41,8.41,0,0,0-.8-3.18c-1.4-2.86-1.17-5.8-.78-8.81.59-4.58,1.12-9.17,1.68-13.75L76,59.31c-.43,1.1-.93,2.18-1.29,3.31a39.9,39.9,0,0,0-1.5,13.29c0,1.88-.76,3-2.26,3.34a11.77,11.77,0,0,1-7.52-.4,3.87,3.87,0,0,0-.52-.13c0,.33,0,.6,0,.87.17,3.21.42,6.42.48,9.63a19.63,19.63,0,0,1-.6,3.69A8.65,8.65,0,0,0,62.54,94q-.46,9.2-.89,18.41a11.74,11.74,0,0,1-.09,1.19,2.12,2.12,0,0,1-4.25-.15c-.15-2.42-.27-4.83-.4-7.25-.11-2.2-.21-4.4-.45-6.62-.06.63-.16,1.26-.19,1.89-.18,3.65-.34,7.29-.51,10.94,0,.43-.05.87-.11,1.3a2.1,2.1,0,0,1-4.2-.12c-.15-2.23-.27-4.47-.39-6.71q-.34-6.5-.67-13a1.06,1.06,0,0,0,0-.32c-1.31-3.27-.44-6.64-.44-10,0-.11,0-.21-.28-.37-.26,1.42-.54,2.84-.79,4.26-.14.82-.18,1.65-.38,2.46A1.77,1.77,0,0,1,45,89.57c-.13-5.4.5-10.63,3.91-15.1a11.37,11.37,0,0,1,6.42-4.35,5.6,5.6,0,0,1,4.89,1.07q2.48,1.83,5.06,3.52a12.66,12.66,0,0,0,2,.88c0-3.14-.12-6.17,0-9.19.29-5.9,1.88-11.39,5.71-16a16.89,16.89,0,0,1,8.72-5.76c4.56-1.24,8.56.11,12.2,2.82a20.84,20.84,0,0,1,6.7,9c.37-.61.65-1.08.95-1.55a22.37,22.37,0,0,1,8.68-8.13c3.92-2,7.71-1.31,11.3.92,4.49,2.78,7.28,6.91,9.09,11.78A41.08,41.08,0,0,1,133,73.08c0,.82,0,1.65,0,2.76a21.14,21.14,0,0,0,2.72-1.26c1.54-1,3-2.08,4.48-3.22C143,69.09,145.56,69,148.6,71c4.21,2.85,6.14,7,7,11.88.15.89.29,1.77.43,2.66V89.9c-1.1,1.75-2.16,1.85-3.48.32-.07-.08-.24-.09-.36-.13a18.79,18.79,0,0,0-.08-2.67c-.32-1.92-.76-3.83-1.15-5.74l-.4.08c.06.49.1,1,.2,1.47C151.2,85.52,151.69,87.8,152.17,90.09Z"/><path class="cls-1" d="M115.09,45.25a9.53,9.53,0,1,1,9.47-9.54A9.58,9.58,0,0,1,115.09,45.25Z"/><path class="cls-1" d="M85,43.58a9.41,9.41,0,1,1,0-18.82,9.41,9.41,0,1,1,0,18.82Z"/><path class="cls-1" d="M62.64,62.93A6.17,6.17,0,0,1,56.37,69a6.16,6.16,0,0,1,.32-12.31A6.16,6.16,0,0,1,62.64,62.93Z"/><path class="cls-1" d="M150.56,62.88a6.13,6.13,0,1,1-6-6.14A6.2,6.2,0,0,1,150.56,62.88Z"/><path class="cls-1" d="M161.89,127.08l-.1.05-18.09,9.68c-3.51,2.24-17.27,9.34-17.27,9.34l-40.3.18v-3.07h39.69A16.28,16.28,0,0,0,110,130.5H83.5A35,35,0,0,1,68.31,127l-2.72-1.34a40.42,40.42,0,0,0-40.58,3v38l3.61-2.08a20.09,20.09,0,0,1,14.89-2L88.75,174a41.77,41.77,0,0,0,25.43-3.56L175,128.67A11.41,11.41,0,0,0,161.89,127.08Z"/></svg>