<svg data-name="Layer 1" xmlns="http://www.w3.org/2000/svg" viewBox="0 0 200 200"><defs><style>.cls-1{fill:#35488a;}</style></defs><title>web</title><path class="cls-1" d="M171,89.43a4,4,0,0,0-4,4v30.75a2.67,2.67,0,0,1-.66,1.76L147.6,147.34a2.67,2.67,0,0,1-4.16-3.37l.13-.15,13.95-16a3.93,3.93,0,0,0-5.87-5.24l0,0-12,14a2.67,2.67,0,0,1-.83.66,26.21,26.21,0,0,0-14.57,23.57V175h25.26l22.7-36.33a18.69,18.69,0,0,0,2.85-9.92V93.44A4,4,0,0,0,171,89.43Z"/><path class="cls-1" d="M50.8,175H76.06V160.85A26.21,26.21,0,0,0,61.49,137.3a2.67,2.67,0,0,1-.83-.66l-12-14a3.93,3.93,0,0,0-6.13,4.92l.21.25,14,16a2.67,2.67,0,1,1-3.9,3.66l-.13-.15L33.93,126a2.67,2.67,0,0,1-.66-1.77V93.44a4,4,0,0,0-8,0v35.31a18.69,18.69,0,0,0,2.85,9.92Z"/><path class="cls-1" d="M119.23,45.75a10.37,10.37,0,1,0-10.37-10.37A10.37,10.37,0,0,0,119.23,45.75Z"/><path class="cls-1" d="M71.71,45.75A10.37,10.37,0,1,0,61.33,35.37,10.37,10.37,0,0,0,71.71,45.75Z"/><path class="cls-1" d="M151.36,79.2a4,4,0,0,0-1.39-4l-9.39-7.51-8.69-21.13a4,4,0,0,0-2.94-2.39,13.1,13.1,0,0,1-19.44,0,4,4,0,0,0-2.94,2.39l-11.1,27-11.1-27a4,4,0,0,0-2.94-2.39,13.1,13.1,0,0,1-19.44,0A4,4,0,0,0,59,46.57l-14.79,36a4,4,0,1,0,7.38,3l7.5-18.22v5L51.69,95.63a6.06,6.06,0,0,0,5.77,7.91h1.67V122a5.25,5.25,0,0,0,5.44,5.25,5.33,5.33,0,0,0,5.06-5.37V103.54h4.16V122a5.25,5.25,0,0,0,5.44,5.25,5.33,5.33,0,0,0,5.06-5.37V103.54H86a6.06,6.06,0,0,0,5.77-7.91L84.28,72.39v-5l6,14.58a5.61,5.61,0,0,0,5.19,3.48h0a5.61,5.61,0,0,0,5.19-3.48l6-14.58V122a5.25,5.25,0,0,0,5.44,5.25,5.33,5.33,0,0,0,5.06-5.37V93.53a2.13,2.13,0,0,1,1.94-2.14,2.08,2.08,0,0,1,2.22,2.07V122a5.25,5.25,0,0,0,5.44,5.25,5.33,5.33,0,0,0,5.06-5.37V67.34l1.79,4.34a4,4,0,0,0,1.2,1.6l9.49,7.58a6.82,6.82,0,0,0-2,4.8v39.49a1.91,1.91,0,0,0,1.8,1.93,1.85,1.85,0,0,0,1.91-1.85V85.76a3.19,3.19,0,0,1,2.83-3.21,3.13,3.13,0,0,1,3.43,3.12v4.66a1.91,1.91,0,0,0,1.8,1.93A1.85,1.85,0,0,0,156,90.41V85.67A6.85,6.85,0,0,0,151.36,79.2Z"/></svg>