<svg data-name="Layer 1" xmlns="http://www.w3.org/2000/svg" viewBox="0 0 200 200"><defs><style>.cls-1{fill:#35488a;}.cls-2{fill:#fff;}</style></defs><title>web</title><path class="cls-1" d="M99.85,24.75,38.48,52V92.93c0,37.84,26.18,73.23,61.36,81.82,35.18-8.59,61.36-44,61.36-81.82V52Z"/><path class="cls-2" d="M93.45,71.54a5.26,5.26,0,0,0,4.71-3l2.51-5.27H81.76v8.23Z"/><path class="cls-2" d="M142.24,123.13,113.66,94.56A9.77,9.77,0,0,0,101.95,93l-4.14-4.14a2.7,2.7,0,0,0-.28-.24,21.78,21.78,0,0,0,12.63-19.77,5.51,5.51,0,0,0-3.84-5.25l-3.45,7.26a10.51,10.51,0,0,1-9.42,5.93H79.15a2.61,2.61,0,0,1-2.61-2.61V63.31H54V90.59H84.37a2.6,2.6,0,0,0-.56.74L79.51,100a7.43,7.43,0,1,0,13.29,0l-4.31-8.62a2.6,2.6,0,0,0-.56-.74h.46A21.81,21.81,0,0,0,93.45,90a2.6,2.6,0,0,0,.67,2.51l4.14,4.14a9.77,9.77,0,0,0,1.59,11.72l28.57,28.57a2.61,2.61,0,0,0,3.69,0l10.12-10.12A2.61,2.61,0,0,0,142.24,123.13Zm-10.71,3.1a2.61,2.61,0,0,1-3.69,0l-5.43-5.43a2.61,2.61,0,0,1,3.69-3.69l5.43,5.43A2.61,2.61,0,0,1,131.52,126.23Z"/></svg>